# xmcd
#
# Track frame offsets: 
#        150
#        20692
#        39067
#        57185
#        75770
#        95212
#        114305
#        132100
#        148657
#        164320
#        182947
#        197940
#
# Disc length: 2910 seconds
#
# Revision: 14
# Processed by: cddbd v1.5.2PL0 Copyright (c) Steve Scherf et al.
# Submitted via: ExactAudioCopyFreeDBPlugin 1.0
#
DISCID=9b0b5c0c
DTITLE=Marla Glen - Our World
DYEAR=1997
DGENRE=Rhythm and Blues
TTITLE0=Hot Love
TTITLE1=Real Love
TTITLE2=Myriam
TTITLE3=Promises
TTITLE4=Time Is Faster
TTITLE5=We Need Each Other
TTITLE6=Our World
TTITLE7=Center Of A Star
TTITLE8=Movin'
TTITLE9=La Mamma
TTITLE10=It's A Man's Man's Man's World
TTITLE11=Talk About Love
EXTD=
EXTT0=
EXTT1=
EXTT2=
EXTT3=
EXTT4=
EXTT5=
EXTT6=
EXTT7=
EXTT8=
EXTT9=
EXTT10=
EXTT11=
PLAYORDER=
